<svg width="43" height="43" viewBox="0 0 43 43" fill="none" xmlns="http://www.w3.org/2000/svg">
<circle cx="21.4265" cy="21.4265" r="21.4265" fill="#C4C4C4"/>
<path d="M29.8347 19.4915C29.2073 21.0678 29.1744 24.5382 31.9361 23.9517C33.0908 23.2737 34.1065 21.1243 29.8347 19.4915Z" stroke="black" stroke-width="0.892771"/>
<path d="M16.9629 24.5515C17.4279 23.5099 18.9716 21.4268 21.4267 21.4268" stroke="black" stroke-width="0.892771"/>
<path d="M25.8906 24.5515C25.4256 23.5099 23.8819 21.4268 21.4268 21.4268" stroke="black" stroke-width="0.892771"/>
<path d="M13.5468 13.2277C13.3826 13.5779 12.521 14.1032 12.1107 14.3221C11.9054 14.1033 11.4952 14.7597 11.085 15.1974C10.6747 15.6352 11.9055 16.7295 11.4952 17.1672C11.0849 17.605 12.1107 18.0427 12.1107 18.6993C12.1107 19.3559 13.5468 18.6993 14.1622 18.9182C14.7777 19.137 15.5983 18.0427 16.0086 18.0427C16.419 18.0427 16.2138 16.5106 16.8293 16.2918C17.4447 16.0729 16.2138 14.3221 16.0086 14.5408C15.8035 14.7596 15.188 14.3221 15.188 13.6655C15.188 13.0089 13.7519 12.79 13.5468 13.2277Z" stroke="black"/>
<path d="M28.5468 13.2277C28.3826 13.5779 27.521 14.1032 27.1107 14.3221C26.9054 14.1033 26.4952 14.7597 26.085 15.1974C25.6747 15.6352 26.9055 16.7295 26.4952 17.1672C26.0849 17.605 27.1107 18.0427 27.1107 18.6993C27.1107 19.3559 28.5468 18.6993 29.1622 18.9182C29.7777 19.137 30.5983 18.0427 31.0086 18.0427C31.419 18.0427 31.2138 16.5106 31.8293 16.2918C32.4447 16.0729 31.2138 14.3221 31.0086 14.5408C30.8035 14.7596 30.188 14.3221 30.188 13.6655C30.188 13.0089 28.7519 12.79 28.5468 13.2277Z" stroke="black"/>
</svg>
