<svg width="52" height="48" viewBox="0 0 52 48" fill="none" xmlns="http://www.w3.org/2000/svg">
<circle cx="21.4265" cy="26.4265" r="21.4265" fill="#E3A061"/>
<circle cx="14" cy="23" r="2.5" stroke="black"/>
<circle cx="25" cy="23" r="2.5" stroke="black"/>
<path d="M32.34 14.18L31.94 6.42L31.88 4.04H34.1L34.04 6.42L33.64 14.18H32.34ZM33 19.1C32.28 19.1 31.7 18.6 31.7 17.8C31.7 17 32.28 16.46 33 16.46C33.7 16.46 34.28 17 34.28 17.8C34.28 18.6 33.7 19.1 33 19.1ZM40.54 14.18L40.14 6.42L40.08 4.04H42.3L42.24 6.42L41.84 14.18H40.54ZM41.2 19.1C40.48 19.1 39.9 18.6 39.9 17.8C39.9 17 40.48 16.46 41.2 16.46C41.9 16.46 42.48 17 42.48 17.8C42.48 18.6 41.9 19.1 41.2 19.1Z" fill="black"/>
<path d="M12 31C13.3333 32 16.7 34 19.5 34C22.3 34 26.3333 32 28 31" stroke="black"/>
</svg>
