<svg width="43" height="48" viewBox="0 0 43 48" fill="none" xmlns="http://www.w3.org/2000/svg">
<circle cx="21.4265" cy="26.4265" r="21.4265" fill="#B6B6B6"/>
<circle cx="14" cy="23" r="2.5" stroke="black"/>
<circle cx="25" cy="23" r="2.5" stroke="black"/>
<path d="M21.5 32C21.5 33.3057 21.1814 34.4635 20.6926 35.2783C20.1977 36.103 19.5838 36.5 19 36.5C18.4162 36.5 17.8023 36.103 17.3074 35.2783C16.8186 34.4635 16.5 33.3057 16.5 32C16.5 30.6943 16.8186 29.5365 17.3074 28.7217C17.8023 27.897 18.4162 27.5 19 27.5C19.5838 27.5 20.1977 27.897 20.6926 28.7217C21.1814 29.5365 21.5 30.6943 21.5 32Z" stroke="black"/>
<path d="M31.88 14.18C31.28 10.84 35.98 9.96 35.98 7.68C35.98 6.3 35 5.3 32.96 5.3C31.58 5.3 30.32 5.9 29.16 7.1L28.1 6.12C29.42 4.72 30.98 3.78 33.14 3.78C35.96 3.78 37.78 5.24 37.78 7.54C37.78 10.56 33 11.18 33.52 14.18H31.88ZM32.74 19.1C32.02 19.1 31.46 18.6 31.46 17.8C31.46 17 32.04 16.46 32.74 16.46C33.44 16.46 34.02 17 34.02 17.8C34.02 18.6 33.44 19.1 32.74 19.1Z" fill="black"/>
</svg>
